<?xml version="1.0" standalone="no"?>
<!DOCTYPE svg PUBLIC "-//W3C//DTD SVG 20010904//EN"
 "http://www.w3.org/TR/2001/REC-SVG-20010904/DTD/svg10.dtd">
<svg version="1.0" xmlns="http://www.w3.org/2000/svg"
 width="256.000000pt" height="256.000000pt" viewBox="0 0 256.000000 256.000000"
 preserveAspectRatio="xMidYMid meet">
<metadata>
Created by potrace 1.14, written by Peter Selinger 2001-2017
</metadata>
<g transform="translate(0.000000,256.000000) scale(0.100000,-0.100000)"
fill="#000000" stroke="none">
<path d="M1188 2345 c-2 -2 -25 -6 -53 -9 -121 -13 -282 -70 -400 -140 -367
-219 -571 -644 -509 -1061 16 -108 14 -102 44 -195 50 -155 128 -280 259 -411
129 -128 246 -202 411 -259 81 -27 86 -28 194 -44 259 -38 512 20 736 169 294
196 467 512 475 869 3 152 -23 285 -83 426 -149 353 -451 587 -832 646 -45 7
-237 14 -242 9z m242 -610 c283 -94 411 -420 269 -685 -122 -229 -414 -314
-649 -189 -103 54 -196 168 -230 279 -7 25 -14 83 -16 130 -7 223 139 416 357
474 70 19 199 14 269 -9z"/>
<path d="M1227 1372 c-92 -56 -52 -197 55 -197 73 0 124 86 91 152 -25 52 -97
74 -146 45z"/>
</g>
</svg>
